<?xml version="1.0" encoding="UTF-8" standalone="no"?>
<svg width="60px" height="60px" viewBox="0 0 60 60" version="1.1" xmlns="http://www.w3.org/2000/svg" xmlns:xlink="http://www.w3.org/1999/xlink">
    <!-- Generator: Sketch 40.3 (33839) - http://www.bohemiancoding.com/sketch -->
    <title>Checkmark Illustration</title>
    <desc>Created with Sketch.</desc>
    <defs>
        <rect id="path-1" x="0" y="0" width="60" height="60" rx="8"></rect>
        <mask id="mask-2" maskContentUnits="userSpaceOnUse" maskUnits="objectBoundingBox" x="0" y="0" width="60" height="60" fill="white">
            <use xlink:href="#path-1"></use>
        </mask>
    </defs>
    <g id="Landing" stroke="none" stroke-width="1" fill="none" fill-rule="evenodd">
        <g id="Landing-It.3" transform="translate(-807.000000, -1215.000000)">
            <g id="Slide-2" transform="translate(0.000000, 900.000000)">
                <g id="Header-Group" transform="translate(807.000000, 315.000000)">
                    <g id="Checkmark-Illustration">
                        <path d="M26.2546749,42.0106724 C26.2004365,42.0848717 26.139809,42.1558582 26.0727922,42.222875 C25.3698485,42.9258187 24.2301515,42.9258187 23.5272078,42.222875 L15.5272078,34.222875 C14.8242641,33.5199312 14.8242641,32.3802343 15.5272078,31.6772905 C16.2301515,30.9743468 17.3698485,30.9743468 18.0727922,31.6772905 L24.7559958,38.3604942 L40.829166,17.6949896 C41.4394921,16.9102847 42.5703882,16.7689227 43.3550931,17.3792488 C44.139798,17.9895748 44.2811601,19.1204709 43.670834,19.9051758 L26.870834,41.5051758 C26.6999246,41.7249165 26.4881938,41.8942084 26.2546749,42.0106724 Z" id="Combined-Shape" fill-opacity="0.63" fill="#FFFFFF"></path>
                        <use id="Rectangle-2" stroke-opacity="0.24" stroke="#FFFFFF" mask="url(#mask-2)" stroke-width="8" xlink:href="#path-1"></use>
                    </g>
                </g>
            </g>
        </g>
    </g>
</svg>