<?xml version="1.0" encoding="UTF-8" standalone="no"?>
<svg width="1440px" height="900px" viewBox="0 0 1440 900" version="1.1" xmlns="http://www.w3.org/2000/svg" xmlns:xlink="http://www.w3.org/1999/xlink">
    <!-- Generator: Sketch 40.3 (33839) - http://www.bohemiancoding.com/sketch -->
    <title>Pattern</title>
    <desc>Created with Sketch.</desc>
    <defs></defs>
    <g id="Landing" stroke="none" stroke-width="1" fill="none" fill-rule="evenodd">
        <g id="Landing-It.5">
            <g id="Slide-1">
                <g id="Pattern" transform="translate(0.000000, -255.000000)">
                    <g id="JQuery" transform="translate(912.311487, 337.334311) rotate(60.000000) translate(-912.311487, -337.334311) translate(647.811487, 121.334311)">
                        <ellipse id="Oval-2" stroke="#FFFFFF" stroke-width="4" opacity="0.16" cx="317.5" cy="216" rx="211.5" ry="216"></ellipse>
                        <path d="M0.5,387.5 L129.5,318.5" id="Line" stroke="#FFFFFF" stroke-width="4" stroke-linecap="square" opacity="0.24"></path>
                        <text id="Exploit" opacity="0.452658582" transform="translate(317.500000, 216.000000) rotate(-60.000000) translate(-317.500000, -216.000000) " font-family="AktivGrotesk-Bold, Aktiv Grotesk" font-size="40" font-weight="bold" fill="#FFFFFF">
                            <tspan x="251" y="230">Exploit</tspan>
                        </text>
                    </g>
                    <g id="MySQL" transform="translate(1407.311487, 627.334311) rotate(60.000000) translate(-1407.311487, -627.334311) translate(1142.811487, 411.334311)">
                        <ellipse id="Oval-2" stroke="#FFFFFF" stroke-width="4" opacity="0.16" cx="317.5" cy="216" rx="211.5" ry="216"></ellipse>
                        <g id="MySQL-Logo" transform="translate(317.000000, 216.500000) rotate(-60.000000) translate(-317.000000, -216.500000) translate(239.000000, 176.000000)" fill-opacity="0.6" fill="#FFFFFF">
                            <path d="M0.294557125,73.7132079 L5.41813973,73.7132079 L5.41813973,53.378599 L13.3501213,71.1055693 C14.2860016,73.2512673 15.5671167,74.0103416 18.0794349,74.0103416 C20.5921121,74.0103416 21.8237142,73.2512673 22.7599934,71.1055693 L30.6916159,53.378599 L30.6916159,73.7132079 L35.8155975,73.7132079 L35.8155975,53.4118812 C35.8155975,51.4313911 35.0269796,50.4738267 33.4014676,49.979005 C29.509487,48.7575891 26.8982226,49.813797 25.7156947,52.4547178 L17.9317336,69.9499158 L10.394061,52.4547178 C9.26100623,49.813797 6.60062771,48.7575891 2.70867907,49.979005 C1.08277206,50.4738267 0.294557125,51.4313911 0.294557125,53.4118812 L0.294557125,73.7132079 L0.294557125,73.7132079 Z" id="Shape"></path>
                            <path d="M40.0756419,57.1619406 L45.1977084,57.1619406 L45.1977084,68.364802 C45.1498312,68.973505 45.3920102,70.4018317 48.1988133,70.4463416 C49.6307417,70.468797 59.2504757,70.4463416 59.3402455,70.4463416 L59.3402455,57.1074059 L64.4742813,57.1074059 C64.497821,57.1074059 64.4690946,75.2979208 64.4694936,75.3753119 C64.497821,79.8615891 58.9308951,80.835995 56.3650742,80.9113812 L40.1869565,80.9113812 L40.1869565,77.4472277 C40.2152839,77.4472277 56.3531049,77.4504356 56.3938005,77.4464257 C59.6913453,77.0963614 59.3019437,75.4490941 59.3015448,74.8945248 L59.3015448,73.5439901 L48.411468,73.5439901 C43.3448593,73.4970743 40.1183325,71.2747871 40.0784348,68.7180743 C40.074844,68.4810891 40.1877545,57.2738168 40.0756419,57.1619406 L40.0756419,57.1619406 Z" id="Shape"></path>
                            <path d="M68.4229565,73.7132079 L83.1531867,73.7132079 C84.8775652,73.7132079 86.5528696,73.3503119 87.8830588,72.7227624 C90.0997749,71.6998366 91.1837954,70.3136139 91.1837954,68.4975297 L91.1837954,64.7346386 C91.1837954,63.2489703 89.9521535,61.8623465 87.5379437,60.9384653 C86.2568286,60.4428416 84.6804706,60.1789901 83.1531867,60.1789901 L76.9455038,60.1789901 C74.8768082,60.1789901 73.891335,59.5518416 73.6451662,58.1656188 C73.5956931,58.0004109 73.5956931,57.8680842 73.5956931,57.7032772 L73.5956931,55.3598911 C73.5956931,55.2275644 73.5956931,55.0952376 73.6451662,54.9304307 C73.891335,53.8742228 74.4335448,53.5766881 76.2560716,53.4118812 C76.4040921,53.4118812 76.6007877,53.378599 76.7488082,53.378599 L91.38089,53.378599 L91.38089,49.9461238 L76.994977,49.9461238 C74.9258824,49.9461238 73.8418619,50.0780495 72.8567877,50.3747822 C69.8022199,51.3323465 68.4720307,52.850896 68.4720307,55.4918168 L68.4720307,58.4956337 C68.4720307,60.8065396 71.083335,62.7870297 75.4676931,63.2489703 C75.9608286,63.2818515 76.4531662,63.3147327 76.9455038,63.3147327 L82.2662609,63.3147327 C82.4637545,63.3147327 82.6608491,63.3147327 82.8084706,63.3480149 C84.4343018,63.4803416 85.123734,63.7770743 85.6168696,64.3713416 C85.9121125,64.6680743 86.0106598,64.9656089 86.0106598,65.2956238 L86.0106598,68.2994406 C86.0106598,68.6627376 85.764491,69.1250792 85.2721535,69.5208564 C84.828491,69.9170347 84.0895857,70.1812871 83.1041125,70.2474505 C82.9070179,70.2474505 82.7593964,70.2803317 82.5623018,70.2803317 L68.4229565,70.2803317 L68.4229565,73.7132079 L68.4229565,73.7132079 Z" id="Shape"></path>
                        </g>
                        <path d="M0.5,387.5 L129.5,318.5" id="Line" stroke="#FFFFFF" stroke-width="4" stroke-linecap="square" opacity="0.24"></path>
                    </g>
                    <g id="PHP" transform="translate(509.000000, 806.000000)">
                        <ellipse id="Oval-2" stroke="#FFFFFF" stroke-width="4" opacity="0.16" cx="289.5" cy="221" rx="211.5" ry="216"></ellipse>
                        <path d="M0,0 L125.354017,79.6656891" id="Line" stroke="#FFFFFF" stroke-width="4" stroke-linecap="square" opacity="0.24"></path>
                        <text id="Ethical-Hacking" opacity="0.6" font-family="AktivGrotesk-Bold, Aktiv Grotesk" font-size="40" font-weight="bold" fill="#FFFFFF">
                            <tspan x="142" y="235">Ethical Hacking</tspan>
                        </text>
                    </g>
                    <g id="ABCTF" transform="translate(0.000000, 483.000000)">
                        <ellipse id="Oval-2" stroke="#FFFFFF" stroke-width="4" opacity="0.16" cx="320.5" cy="216" rx="211.5" ry="216"></ellipse>
                        <g id="ABCTF-Logo" transform="translate(243.000000, 187.000000)" fill="#FFFFFF">
                            <ellipse id="Logo" cx="28.7012987" cy="29" rx="28.7012987" ry="29"></ellipse>
                            <text id="abctf" font-family="AktivGrotesk-Bold, Aktiv Grotesk" font-size="33.6" font-weight="bold" letter-spacing="-0.100799999">
                                <tspan x="71" y="41">ab</tspan>
                                <tspan x="110.5808" y="41">ctf</tspan>
                            </text>
                        </g>
                        <path d="M0.645982551,32.3343109 L136,107" id="Line" stroke="#FFFFFF" stroke-width="4" stroke-linecap="square" opacity="0.24"></path>
                    </g>
                </g>
            </g>
        </g>
    </g>
</svg>